<?xml version="1.0" encoding="utf-8"?>
<svg xmlns="http://www.w3.org/2000/svg" viewBox="0 0 500 500">
  <path d="M 75.929 268.7 C 70.992 242.273 78.765 212.209 100.372 196.213 C 99.147 225.422 108.294 254.124 126.194 277.238 C 133.129 286.128 141.769 295.293 141.5 306.565 C 141.334 313.578 137.541 320.112 132.542 325.034 C 127.543 329.957 121.386 333.505 115.302 336.999 L 114.355 338.472 C 96.52 318.356 80.867 295.126 75.929 268.7 Z" fill="#f0f0f0" style="stroke-width: 1;"/>
  <path d="M 100.766 196.617 C 91.688 216.933 89.242 239.593 93.777 261.378 C 94.669 266.086 96.299 270.623 98.604 274.822 C 100.982 278.841 104.393 282.15 108.483 284.404 C 112.253 286.583 116.362 288.375 119.538 291.432 C 122.778 294.646 124.493 299.091 124.251 303.648 C 124.099 309.271 121.936 314.504 119.642 319.547 C 117.096 325.147 114.362 330.923 114.528 337.219 C 114.548 337.982 113.363 337.969 113.343 337.207 C 113.056 326.253 120.975 317.456 122.739 306.946 C 123.563 302.041 122.913 296.859 119.465 293.057 C 116.45 289.733 112.214 287.881 108.377 285.708 C 104.356 283.567 100.92 280.474 98.369 276.7 C 95.857 272.631 94.056 268.164 93.042 263.491 C 90.593 253.006 89.807 242.202 90.714 231.473 C 91.681 219.223 94.737 207.228 99.749 196.008 C 100.059 195.314 101.074 195.927 100.766 196.617 Z" fill="#fff" style="stroke-width: 1;"/>
  <path d="M 91.904 254.45 C 84.141 254.996 77.126 249.838 75.332 242.266 C 75.159 241.524 76.305 241.22 76.478 241.963 C 78.136 249.02 84.688 253.817 91.916 253.265 C 92.676 253.208 92.66 254.393 91.904 254.45 Z" fill="#fff" style="stroke-width: 1;"/>
  <path d="M 106.425 283.551 C 111.527 277.782 114.267 270.301 114.099 262.601 C 114.082 261.838 115.266 261.852 115.284 262.614 C 115.444 270.627 112.577 278.406 107.254 284.398 C 106.747 284.969 105.92 284.119 106.425 283.551 Z" fill="#fff" style="stroke-width: 1;"/>
  <path d="M 93.07 219.958 C 96.067 220.366 99.068 219.239 101.057 216.96 C 101.557 216.383 102.383 217.233 101.886 217.806 C 99.678 220.313 96.371 221.563 93.057 221.143 C 92.734 221.13 92.478 220.868 92.471 220.545 C 92.476 220.218 92.743 219.957 93.07 219.958 Z" fill="#fff" style="stroke-width: 1;"/>
  <path d="M 188.731 218.072 C 188.429 218.441 188.127 218.81 187.827 219.189 C 183.791 224.173 180.167 229.476 176.99 235.047 C 176.738 235.474 176.488 235.91 176.249 236.343 C 168.738 249.846 163.799 264.626 161.684 279.932 C 160.848 286.023 160.476 292.169 160.572 298.317 C 160.706 306.807 161.526 316.002 158.924 323.81 C 158.661 324.628 158.348 325.429 157.987 326.208 L 116.225 339.513 C 116.115 339.496 116.008 339.488 115.897 339.471 L 114.254 340.078 C 114.227 339.762 114.206 339.433 114.179 339.116 C 114.162 338.932 114.155 338.746 114.138 338.562 C 114.13 338.439 114.123 338.315 114.108 338.204 C 114.106 338.163 114.103 338.122 114.103 338.09 C 114.089 337.98 114.088 337.875 114.076 337.774 C 113.952 335.935 113.837 334.093 113.742 332.244 C 113.739 332.235 113.739 332.235 113.745 332.222 C 113.028 318.146 113.48 303.885 116.082 290.147 C 116.161 289.734 116.236 289.311 116.333 288.892 C 117.541 282.706 119.251 276.629 121.449 270.721 C 122.662 267.49 124.039 264.323 125.573 261.232 C 129.551 253.251 134.761 245.946 141.009 239.584 C 153.468 226.903 169.843 218.348 187.39 218.079 C 187.839 218.072 188.279 218.069 188.731 218.072 Z" fill="#f0f0f0" style="stroke-width: 1;"/>
  <path d="M 188.806 218.632 C 169.326 229.388 153.731 246.008 144.235 266.132 C 142.113 270.428 140.683 275.031 139.995 279.773 C 139.474 284.413 140.206 289.109 142.114 293.371 C 143.812 297.38 146.015 301.285 146.709 305.638 C 147.361 310.156 146.055 314.737 143.117 318.23 C 139.611 322.628 134.733 325.503 129.865 328.15 C 124.461 331.088 118.8 334.054 115.142 339.18 C 114.698 339.801 113.761 339.077 114.203 338.457 C 120.569 329.538 132.188 327.282 139.925 319.952 C 143.535 316.532 146.137 312.003 145.673 306.892 C 145.267 302.422 142.999 298.394 141.244 294.349 C 139.322 290.218 138.441 285.68 138.677 281.13 C 139.121 276.369 140.372 271.718 142.377 267.376 C 146.734 257.53 152.611 248.431 159.795 240.41 C 167.942 231.212 177.604 223.474 188.36 217.533 C 189.026 217.166 189.467 218.267 188.806 218.632 Z" fill="#fff" style="stroke-width: 1;"/>
  <path d="M 146.911 259.472 C 140.384 255.235 137.888 246.893 141.015 239.767 C 141.324 239.07 142.421 239.517 142.112 240.215 C 139.187 246.848 141.531 254.623 147.634 258.534 C 148.276 258.946 147.549 259.882 146.911 259.472 Z" fill="#fff" style="stroke-width: 1;"/>
  <path d="M 140.984 291.451 C 148.532 289.916 155.223 285.593 159.725 279.344 C 160.17 278.724 161.108 279.448 160.663 280.067 C 155.967 286.561 148.994 291.046 141.137 292.626 C 140.388 292.776 140.239 291.6 140.984 291.451 Z" fill="#fff" style="stroke-width: 1;"/>
  <path d="M 168.608 232.635 C 170.756 234.765 173.83 235.672 176.79 235.049 C 177.537 234.89 177.685 236.066 176.943 236.224 C 173.671 236.897 170.278 235.904 167.885 233.573 C 167.635 233.368 167.588 233.004 167.777 232.742 C 167.978 232.485 168.348 232.437 168.608 232.635 Z" fill="#fff" style="stroke-width: 1;"/>
  <path d="M 254.329 73.563 C 254.469 74.178 254.56 74.803 254.602 75.432 L 303.566 103.68 L 315.468 96.828 L 328.155 113.438 L 308.265 127.615 C 304.964 129.967 300.507 129.859 297.325 127.348 L 246.834 87.516 C 238.196 90.713 229.336 83.361 230.886 74.282 C 232.436 65.203 243.233 61.206 250.321 67.088 C 252.327 68.752 253.734 71.026 254.329 73.563 Z" fill="#ffb6b6" style="stroke-width: 1;"/>
  <path d="M 304.246 100.561 C 304.56 99.103 305.494 97.854 306.804 97.141 L 329.41 84.824 C 338.163 78.218 350.784 83.564 352.129 94.447 C 352.75 99.472 350.657 104.448 346.632 107.519 L 328.514 125.925 C 326.317 128.157 322.65 127.915 320.764 125.415 L 305.164 104.733 C 304.266 103.542 303.93 102.019 304.246 100.561 Z" fill="#3f3d56" style="stroke-width: 1;"/>
  <path d="M 344.632 28.955 C 347.885 18.589 355.281 9.082 365.51 5.578 C 375.74 2.074 390.718 7.412 398.409 15.076 C 412.476 29.096 415.909 77.258 406.244 92.478 C 404.322 92.376 397.688 92.301 395.743 92.228 L 392.991 83.055 L 392.991 92.138 C 377.804 91.668 361.994 91.962 346.175 92.266 C 344.757 81.49 341.38 39.321 344.632 28.955 Z" fill="#2f2e41" style="stroke-width: 1;"/>
  <polygon points="340.28 464.052 326.429 464.052 319.84 410.625 340.283 410.626 340.28 464.052" fill="#ffb6b6" style="stroke-width: 1;"/>
  <polygon points="461.534 455.439 448.131 458.932 428.278 408.895 448.06 403.74 461.534 455.439" fill="#ffb6b6" style="stroke-width: 1;"/>
  <polygon points="385.202 135.912 388.341 144.072 387.713 152.232 326.289 173.507 329.337 137.795 336.241 129.634 385.202 135.912" fill="#ffb6b6" style="stroke-width: 1;"/>
  <circle cx="365.781" cy="40.54" r="21.938" fill="#ffb7b7" style="stroke-width: 1;"/>
  <path d="M 350.707 11.973 C 368.818 0.931 392.091 13.637 392.598 34.843 C 392.607 35.236 392.608 35.628 392.6 36.021 C 380.642 39.078 367.898 40.356 354.393 36.757 L 351.306 29.202 L 349.486 36.763 C 345.355 39.669 341.367 39.664 337.523 36.747 C 337.191 26.73 342.213 17.293 350.707 11.973 Z" fill="#2f2e41" style="stroke-width: 1;"/>
  <path d="M 346.476 490.353 L 336.648 490.353 L 334.893 481.073 L 330.4 490.353 L 304.332 490.353 C 299.821 490.353 297.001 485.47 299.257 481.563 C 299.691 480.811 300.287 480.165 301.002 479.671 L 321.819 465.294 L 321.819 455.913 L 343.715 457.22 L 346.476 490.353 Z" fill="#2f2e41" style="stroke-width: 1;"/>
  <path d="M 475.378 479.01 L 465.868 481.489 L 461.829 472.952 L 459.822 483.065 L 434.597 489.64 C 430.232 490.778 426.272 486.764 427.469 482.415 C 427.699 481.577 428.113 480.801 428.68 480.143 L 445.198 460.98 L 442.832 451.902 L 464.349 447.644 L 475.378 479.01 Z" fill="#2f2e41" style="stroke-width: 1;"/>
  <path d="M 459.834 421.84 L 419.233 338.393 L 406.488 236.827 C 415.275 220.506 398.955 187.298 398.955 187.298 L 398.955 173.355 L 335.735 185.282 C 322.804 220.55 316.534 257.912 317.242 295.469 L 319.79 430.479 L 318.99 430.479 C 315.141 430.479 312.736 434.646 314.66 437.979 C 315.554 439.526 317.204 440.479 318.99 440.479 L 343.99 440.479 C 347.839 440.479 350.245 436.312 348.321 432.979 C 347.427 431.432 345.777 430.479 343.99 430.479 L 343.346 430.479 L 361.293 258.723 L 382.161 343.48 L 432.59 421.519 C 428.763 421.818 426.693 426.148 428.866 429.313 C 429.798 430.673 431.342 431.483 432.99 431.479 L 457.99 431.479 C 461.835 431.483 464.243 427.323 462.324 423.991 C 461.761 423.014 460.883 422.256 459.834 421.84 Z" fill="#2f2e41" style="stroke-width: 1;"/>
  <path d="M 404.671 195.846 C 404.245 194.172 402.789 192.963 401.066 192.851 C 400.232 183.324 394.726 122.222 394.517 120.43 L 394.509 120.354 L 392.914 86.296 C 392.795 83.735 390.77 81.673 388.212 81.506 L 379.791 80.956 C 379.551 80.947 379.361 80.751 379.361 80.51 C 379.361 76.599 376.19 73.429 372.279 73.429 L 347.348 73.429 C 344.007 73.43 341.189 75.918 340.772 79.233 C 340.75 79.461 340.554 79.634 340.324 79.629 L 340.321 79.629 C 334.467 79.508 329.403 83.683 328.406 89.453 C 324.998 109.284 318.167 154.293 321.544 179.315 C 322.72 188.026 322.185 201.127 321.741 208.415 C 321.652 209.838 322.132 211.237 323.076 212.305 C 321.01 212.9 319.787 215.026 320.31 217.112 C 320.85 219.254 323.024 220.553 325.167 220.013 L 401.77 200.702 C 403.912 200.162 405.211 197.988 404.671 195.846 Z" fill="#3f3d56" style="stroke-width: 1;"/>
  <path d="M 278.065 339.029 C 278.036 334.411 274.678 330.488 270.12 329.747 L 134.305 307.445 C 133.003 307.229 131.67 307.289 130.392 307.619 L 98.563 315.849 L 80.3 320.577 L 46.598 329.289 C 42.413 330.376 39.492 334.152 39.49 338.476 L 39.49 480.79 C 39.511 485.259 42.634 489.114 47.001 490.063 L 185.338 488.497 C 185.987 488.636 186.65 488.705 187.314 488.702 C 188.282 488.704 189.245 488.558 190.168 488.268 L 272.357 490.313 C 276.34 489.07 279.036 485.361 278.99 481.189 L 278.065 339.029 Z" fill="#fff" style="stroke-width: 1;"/>
  <path d="M 278.065 339.029 C 278.036 334.411 274.678 330.488 270.12 329.747 L 134.305 307.445 C 133.003 307.229 131.67 307.289 130.392 307.619 L 98.563 315.849 L 80.3 320.577 L 46.598 329.289 C 42.413 330.376 39.492 334.152 39.49 338.476 L 39.49 480.79 C 39.511 485.259 42.634 489.114 47.001 490.063 L 185.338 488.497 C 185.987 488.636 186.65 488.705 187.314 488.702 C 188.282 488.704 189.245 488.558 190.168 488.268 L 272.357 490.313 C 276.34 489.07 279.036 485.361 278.99 481.189 L 278.065 339.029 Z M 271.646 488.052 L 189.457 490.007 C 188.284 490.372 187.038 490.432 185.836 490.181 L 47.491 487.747 C 44.217 487.033 41.877 484.141 41.862 480.79 L 41.862 338.476 C 41.864 335.492 43.726 332.825 46.527 331.795 C 46.744 331.714 46.966 331.645 47.191 331.589 L 82.846 322.371 L 103.931 316.916 L 130.985 309.92 C 131.565 309.765 132.163 309.688 132.764 309.69 C 133.15 309.69 133.536 309.722 133.918 309.785 L 269.732 332.088 C 271.948 332.451 273.864 333.837 274.903 335.827 C 275.416 336.822 275.687 337.925 275.694 339.045 L 276.619 481.205 C 276.654 484.335 274.633 487.117 271.646 488.052 Z" fill="#ccc" style="stroke-width: 1;"/>
  <path d="M 274.903 335.827 C 274.811 335.888 274.709 335.933 274.603 335.961 L 234.654 346.761 L 222.218 350.121 L 186.848 359.679 C 186.747 359.704 186.643 359.717 186.539 359.719 C 186.468 359.717 186.397 359.712 186.326 359.703 L 43.704 333.7 L 43.23 333.613 C 42.33 333.444 41.951 332.365 42.547 331.67 C 42.821 331.351 43.243 331.2 43.657 331.273 L 46.527 331.795 L 186.492 357.315 L 216.977 349.077 L 234.03 344.468 L 273.361 333.835 L 273.986 333.669 C 274.543 333.522 275.126 333.795 275.369 334.317 C 275.4 334.377 275.424 334.441 275.441 334.507 C 275.574 335.017 275.355 335.555 274.903 335.827 Z" fill="#ccc" style="stroke-width: 1;"/>
  <path d="M 187.725 488.979 C 187.075 488.979 186.545 488.456 186.539 491.804 L 185.353 362.543 C 185.347 357.889 185.874 357.353 186.528 357.347 L 186.539 357.347 C 187.189 357.347 187.719 357.87 187.725 362.522 L 188.911 491.782 C 188.917 488.437 188.391 488.973 187.736 488.979 L 187.725 488.979 Z" fill="#ccc" style="stroke-width: 1;"/>
  <path d="M 234.991 490.479 L 222.218 490.614 L 216.977 349.077 L 83.234 322.466 C 83.103 322.443 82.973 322.411 82.846 322.371 C 81.819 322.079 80.921 321.446 80.301 320.577 L 98.563 315.849 L 103.931 316.916 L 230.836 342.16 C 232.186 342.426 233.353 343.27 234.03 344.468 C 234.425 345.156 234.983 489.657 234.991 490.479 Z" fill="#ccc" style="stroke-width: 1;"/>
  <path d="M 337.293 79.969 C 337.271 76.488 334.74 73.532 331.305 72.974 L 228.948 56.165 C 227.967 56.003 226.962 56.048 225.999 56.296 L 202.011 62.499 L 188.247 66.062 L 162.847 72.628 C 159.693 73.447 157.491 76.293 157.491 79.552 L 157.491 163.444 C 157.506 166.812 159.859 169.718 163.151 170.433 L 267.409 192.616 C 267.898 192.721 268.398 192.773 268.898 192.771 C 269.628 192.772 270.353 192.661 271.049 192.443 L 332.991 172.882 C 335.993 171.945 338.025 169.15 337.99 166.006 L 337.293 79.969 Z" fill="#fff" style="stroke-width: 1;"/>
  <path d="M 227.789 62.326 C 227.714 62.326 227.64 62.336 227.568 62.355 L 164.416 78.686 C 164.022 78.788 163.747 79.144 163.747 79.55 L 163.747 163.441 C 163.748 163.862 164.042 164.226 164.453 164.315 L 268.711 186.497 C 268.862 186.529 269.019 186.521 269.166 186.475 L 331.109 166.915 C 331.484 166.798 331.738 166.448 331.733 166.056 L 331.038 80.019 C 331.035 79.584 330.719 79.215 330.29 79.145 L 227.933 62.338 C 227.886 62.33 227.837 62.326 227.789 62.326 Z" fill="#6c63ff" style="stroke-width: 1;"/>
  <path d="M 337.293 79.969 C 337.271 76.488 334.74 73.532 331.305 72.974 L 228.948 56.165 C 227.967 56.003 226.962 56.048 225.999 56.296 L 202.011 62.499 L 188.247 66.062 L 162.847 72.628 C 159.693 73.447 157.491 76.293 157.491 79.552 L 157.491 163.444 C 157.506 166.812 159.859 169.718 163.151 170.433 L 267.409 192.616 C 267.898 192.721 268.398 192.773 268.898 192.771 C 269.628 192.772 270.353 192.661 271.049 192.443 L 332.991 172.882 C 335.993 171.945 338.025 169.15 337.99 166.006 L 337.293 79.969 Z M 332.455 171.178 L 270.513 190.739 C 269.629 191.014 268.69 191.059 267.784 190.87 L 163.52 168.687 C 161.052 168.149 159.289 165.97 159.278 163.444 L 159.278 79.552 C 159.28 77.303 160.683 75.293 162.793 74.517 C 162.957 74.455 163.124 74.404 163.294 74.362 L 190.166 67.415 L 206.056 63.303 L 226.446 58.03 C 226.883 57.914 227.334 57.856 227.786 57.858 C 228.078 57.857 228.369 57.881 228.656 57.929 L 331.013 74.737 C 332.683 75.011 334.127 76.055 334.91 77.556 C 335.297 78.306 335.501 79.137 335.506 79.981 L 336.203 166.018 C 336.229 168.377 334.706 170.473 332.455 171.178 Z" fill="#3f3d56" style="stroke-width: 1;"/>
  <path d="M 334.91 77.556 C 334.84 77.601 334.764 77.635 334.683 77.657 L 304.576 85.796 L 295.204 88.328 L 268.547 95.532 C 268.471 95.55 268.393 95.56 268.314 95.561 C 268.261 95.56 268.207 95.556 268.153 95.55 L 160.666 75.953 L 160.309 75.887 C 159.63 75.76 159.344 74.947 159.793 74.423 C 159.999 74.182 160.318 74.068 160.631 74.124 L 162.793 74.517 L 268.279 93.75 L 291.254 87.542 L 304.106 84.068 L 333.748 76.054 L 334.219 75.929 C 334.639 75.818 335.078 76.024 335.261 76.417 C 335.284 76.463 335.302 76.511 335.315 76.56 C 335.416 76.945 335.251 77.351 334.91 77.556 Z" fill="#3f3d56" style="stroke-width: 1;"/>
  <path d="M 269.208 192.979 C 268.718 192.979 268.319 192.584 268.314 192.094 L 267.421 94.676 C 267.416 94.182 267.813 93.779 268.306 93.774 L 268.314 93.774 C 268.805 93.774 269.204 94.169 269.208 94.66 L 270.102 192.077 C 270.106 192.571 269.71 192.975 269.216 192.979 L 269.208 192.979 Z" fill="#3f3d56" style="stroke-width: 1;"/>
  <path d="M 304.576 181.128 L 295.204 183.66 L 291.254 87.542 L 190.458 67.486 C 190.359 67.469 190.261 67.445 190.166 67.415 C 189.391 67.194 188.715 66.717 188.247 66.062 L 202.011 62.499 L 206.056 63.303 L 301.698 82.328 C 302.716 82.529 303.595 83.165 304.106 84.068 C 304.404 84.586 304.57 180.509 304.576 181.128 Z" fill="#3f3d56" style="stroke-width: 1;"/>
  <path d="M 300.377 126.325 C 300.857 126.735 301.303 127.182 301.712 127.662 L 357.858 121.105 L 363.319 108.505 L 383.412 114.26 L 375.913 137.506 C 374.669 141.364 371.027 143.937 366.976 143.822 L 302.691 141.994 C 297.668 149.715 286.171 149.103 281.996 140.893 C 277.821 132.683 284.099 123.032 293.297 123.522 C 295.9 123.66 298.386 124.644 300.377 126.325 Z" fill="#ffb6b6" style="stroke-width: 1;"/>
  <path d="M 356.542 118.197 C 355.924 116.84 355.929 115.28 356.554 113.926 L 367.342 90.552 C 370.423 80.028 383.741 76.786 391.314 84.716 C 394.81 88.377 396.101 93.618 394.705 98.484 L 391.152 124.065 C 390.721 127.167 387.635 129.162 384.629 128.282 L 359.769 120.996 C 358.337 120.577 357.159 119.555 356.542 118.197 Z" fill="#3f3d56" style="stroke-width: 1;"/>
  <path d="M 498.401 491.52 L 2.17 491.52 C 1.432 491.518 0.973 490.524 1.345 489.731 C 1.515 489.366 1.83 489.14 2.17 489.139 L 498.401 489.139 C 499.138 489.139 499.6 490.131 499.231 490.925 C 499.06 491.293 498.743 491.52 498.401 491.52 Z" fill="#cacaca" style="stroke-width: 1;"/>
  <circle cx="47.51" cy="329.192" r="35.811" fill="#6c63ff" style="stroke-width: 1;"/>
  <path d="M 199.991 138.98 C 199.88 138.979 199.769 138.967 199.66 138.943 L 168.66 131.943 C 167.534 131.687 167.107 130.308 167.892 129.461 C 168.255 129.068 168.799 128.899 169.321 129.016 L 200.321 136.016 C 201.447 136.27 201.876 137.649 201.092 138.497 C 200.808 138.804 200.409 138.979 199.991 138.98 Z" fill="#fff" style="stroke-width: 1;"/>
  <path d="M 80.685 420.715 C 80.576 420.738 80.465 420.748 80.354 420.747 L 48.578 420.212 C 47.423 420.19 46.725 418.927 47.321 417.937 C 47.596 417.48 48.094 417.204 48.627 417.212 L 80.403 417.747 C 81.558 417.766 82.259 419.029 81.664 420.019 C 81.449 420.377 81.094 420.63 80.685 420.715 Z" fill="#e6e6e6" style="stroke-width: 1;"/>
  <path d="M 91.685 437.715 C 91.576 437.738 91.465 437.748 91.354 437.747 L 59.578 437.212 C 58.423 437.19 57.725 435.927 58.321 434.937 C 58.596 434.48 59.094 434.204 59.627 434.212 L 91.403 434.747 C 92.558 434.766 93.259 436.029 92.664 437.019 C 92.449 437.377 92.094 437.63 91.685 437.715 Z" fill="#e6e6e6" style="stroke-width: 1;"/>
  <g transform="matrix(1.164482, 0, 0, 1.164482, -7.791678, -52.276162)" style="">
    <rect x="64.543" y="311.039" width="6.859" height="40.238" style="fill: rgb(255, 255, 255); transform-box: fill-box; transform-origin: 50% 50%;" rx="3.43" ry="3.43" transform="matrix(0.707106, 0.707108, -0.707106, 0.707108, -20.482114, -3.57199)"/>
    <rect x="64.543" y="311.039" width="6.859" height="40.238" style="fill: rgb(255, 255, 255); stroke-width: 1; transform-origin: 67.973px 331.158px;" rx="3.43" ry="3.43" transform="matrix(0.707106, -0.707108, 0.707106, 0.707108, -20.482275, -3.57206)"/>
  </g>
</svg>